<svg xmlns="http://www.w3.org/2000/svg" enable-background="new 0 0 24 24" viewBox="0 0 24 24" id="fortune-wheel"><path d="M12,2C9.3218,2,6.811,3.0425,4.9355,4.9307C4.9349,4.9313,4.9343,4.9321,4.9337,4.9327
		C4.9335,4.9329,4.9333,4.9329,4.9333,4.9329L4.9326,4.934C3.0414,6.814,2,9.3233,2,12c0,2.6782,1.0425,5.189,2.9307,7.0645
		c0.0007,0.0007,0.0014,0.0012,0.0021,0.0019c0.0002,0.0002,0.0002,0.0004,0.0002,0.0004l0.001,0.0007
		C6.814,20.9586,9.3233,22,12,22c2.6782,0,5.189-1.0425,7.0645-2.9307c0.0007-0.0007,0.0012-0.0014,0.0019-0.0021
		c0.0002-0.0002,0.0004-0.0002,0.0004-0.0002l0.0007-0.001C20.9586,17.186,22,14.6767,22,12c0-2.6772-1.0415-5.187-2.9331-7.0669
		C17.187,3.0415,14.6772,2,12,2z M18.3127,16.8987l-3.3515-3.3515c0.1861-0.1836,0.3624-0.3669,0.5177-0.5472h4.4521
		C19.754,14.4292,19.1992,15.7662,18.3127,16.8987z M4.0688,13h4.066c0.0453,0.1924,0.0862,0.3865,0.1669,0.5669
		c0.0704,0.1628,0.174,0.3026,0.2678,0.4495l-2.8828,2.8828C4.8013,15.7683,4.2461,14.4305,4.0688,13z M5.6873,7.1013l3.0883,3.0883
		C8.5747,10.4377,8.4052,10.7058,8.2837,11H4.0689C4.246,9.5709,4.8008,8.2338,5.6873,7.1013z M10.5205,13.2627
		c-0.1636-0.1196-0.2964-0.2891-0.3877-0.501c-0.0894-0.1997-0.1226-0.4214-0.0972-0.6665c0.0391-0.4102,0.293-0.7861,0.7402-1.0273
		c0.2329-0.1001,0.7124-0.2388,1.3672-0.3281c0.4072-0.0591,0.8184-0.0884,1.1909-0.0884c0.29,0,0.5566,0.0181,0.7788,0.0542
		c0.2157,0.0366,0.3466,0.0815,0.4212,0.1152c-0.038,0.1113-0.1318,0.3084-0.3392,0.5865c-0.3027,0.4106-0.77,0.8818-1.3145,1.3252
		c-0.2267,0.1836-0.4367,0.333-0.6159,0.448c-0.178,0.114-0.3265,0.1947-0.4325,0.2419l-0.1362,0.0552
		C11.3018,13.6025,10.8687,13.5269,10.5205,13.2627z M13.9068,8.6791C13.5955,8.6563,13.2872,8.6465,13,8.6567V4.0688
		c1.4305,0.1772,2.7684,0.7324,3.8992,1.6179L13.9068,8.6791z M11,8.9185c-0.188,0.043-0.3657,0.089-0.5285,0.1389L7.1008,5.6868
		C8.2316,4.8013,9.5695,4.2461,11,4.0688V8.9185z M10.1152,15.2989C10.3979,15.409,10.6943,15.477,11,15.5048v4.4263
		c-1.4292-0.1771-2.7662-0.7319-3.8987-1.6183L10.1152,15.2989z M13,15.0696c0.1308-0.073,0.2673-0.1572,0.4069-0.2486
		l3.4922,3.4922c-1.1308,0.8855-2.4686,1.4407-3.8991,1.618V15.0696z M16.5191,11c0.0473-0.3525,0.0251-0.689-0.1109-0.9971
		c-0.0959-0.2214-0.247-0.4061-0.423-0.5741l2.328-2.328C19.1987,8.2316,19.7539,9.5695,19.9312,11H16.5191z"></path></svg>